<svg width="40" height="40" viewBox="0 0 40 40" fill="none" xmlns="http://www.w3.org/2000/svg">
<rect width="40" height="40" rx="20" fill="#67AAE6"/>
<path d="M6.10156 15.4141V14.8125C6.10156 14.3802 6.19531 13.987 6.38281 13.6328C6.57031 13.2786 6.83854 12.9948 7.1875 12.7812C7.53646 12.5677 7.95052 12.4609 8.42969 12.4609C8.91927 12.4609 9.33594 12.5677 9.67969 12.7812C10.0286 12.9948 10.2969 13.2786 10.4844 13.6328C10.6719 13.987 10.7656 14.3802 10.7656 14.8125V15.4141C10.7656 15.8359 10.6719 16.224 10.4844 16.5781C10.3021 16.9323 10.0365 17.2161 9.6875 17.4297C9.34375 17.6432 8.92969 17.75 8.44531 17.75C7.96094 17.75 7.54167 17.6432 7.1875 17.4297C6.83854 17.2161 6.57031 16.9323 6.38281 16.5781C6.19531 16.224 6.10156 15.8359 6.10156 15.4141ZM7.1875 14.8125V15.4141C7.1875 15.6536 7.23177 15.8802 7.32031 16.0938C7.41406 16.3073 7.55469 16.4818 7.74219 16.6172C7.92969 16.7474 8.16406 16.8125 8.44531 16.8125C8.72656 16.8125 8.95833 16.7474 9.14062 16.6172C9.32292 16.4818 9.45833 16.3073 9.54688 16.0938C9.63542 15.8802 9.67969 15.6536 9.67969 15.4141V14.8125C9.67969 14.5677 9.63281 14.3385 9.53906 14.125C9.45052 13.9062 9.3125 13.7318 9.125 13.6016C8.94271 13.4661 8.71094 13.3984 8.42969 13.3984C8.15365 13.3984 7.92188 13.4661 7.73438 13.6016C7.55208 13.7318 7.41406 13.9062 7.32031 14.125C7.23177 14.3385 7.1875 14.5677 7.1875 14.8125ZM11.6406 21.8203V21.2109C11.6406 20.7839 11.7344 20.3932 11.9219 20.0391C12.1094 19.6849 12.3776 19.401 12.7266 19.1875C13.0755 18.974 13.4896 18.8672 13.9688 18.8672C14.4583 18.8672 14.875 18.974 15.2188 19.1875C15.5677 19.401 15.8359 19.6849 16.0234 20.0391C16.2109 20.3932 16.3047 20.7839 16.3047 21.2109V21.8203C16.3047 22.2474 16.2109 22.638 16.0234 22.9922C15.8411 23.3464 15.5755 23.6302 15.2266 23.8438C14.8828 24.0573 14.4688 24.1641 13.9844 24.1641C13.5 24.1641 13.0833 24.0573 12.7344 23.8438C12.3854 23.6302 12.1146 23.3464 11.9219 22.9922C11.7344 22.638 11.6406 22.2474 11.6406 21.8203ZM12.7266 21.2109V21.8203C12.7266 22.0599 12.7708 22.2891 12.8594 22.5078C12.9531 22.7214 13.0938 22.8958 13.2812 23.0312C13.4688 23.1615 13.7031 23.2266 13.9844 23.2266C14.2656 23.2266 14.4974 23.1615 14.6797 23.0312C14.8672 22.8958 15.0052 22.7214 15.0938 22.5078C15.1823 22.2943 15.2266 22.0651 15.2266 21.8203V21.2109C15.2266 20.8411 15.1224 20.5156 14.9141 20.2344C14.7109 19.9479 14.3958 19.8047 13.9688 19.8047C13.5521 19.8047 13.2396 19.9479 13.0312 20.2344C12.8281 20.5156 12.7266 20.8411 12.7266 21.2109ZM14.3281 14.2422L8.77344 23.1328L7.96094 22.6172L13.5156 13.7266L14.3281 14.2422ZM25.3984 22.8125V24H17.9531V22.9609L21.6797 18.8125C22.138 18.3021 22.4922 17.8698 22.7422 17.5156C22.9974 17.1562 23.1745 16.8359 23.2734 16.5547C23.3776 16.2682 23.4297 15.9766 23.4297 15.6797C23.4297 15.1224 23.2578 14.6458 22.9141 14.25C22.5703 13.8542 22.0807 13.6562 21.4453 13.6562C20.9401 13.6562 20.5182 13.7552 20.1797 13.9531C19.8464 14.1458 19.5964 14.4167 19.4297 14.7656C19.263 15.1146 19.1797 15.5156 19.1797 15.9688H17.7344C17.7344 15.3281 17.875 14.7422 18.1562 14.2109C18.4375 13.6797 18.8542 13.2578 19.4062 12.9453C19.9583 12.6276 20.638 12.4688 21.4453 12.4688C22.5182 12.4688 23.3568 12.7474 23.9609 13.3047C24.5703 13.862 24.875 14.5964 24.875 15.5078C24.875 15.9557 24.7786 16.4062 24.5859 16.8594C24.3932 17.3125 24.1354 17.763 23.8125 18.2109C23.4896 18.6536 23.1328 19.0859 22.7422 19.5078L19.6953 22.8125H25.3984ZM34.6328 20.1719V21.3594H26.4141V20.5078L31.5078 12.625H32.6875L31.4219 14.9062L28.0547 20.1719H34.6328ZM33.0469 12.625V24H31.6016V12.625H33.0469Z" fill="#032340"/>
</svg>
