<svg width="40" height="40" viewBox="0 0 40 40" fill="none" xmlns="http://www.w3.org/2000/svg">
<rect width="40" height="40" rx="20" fill="#FA541C"/>
<path d="M13.3516 24.2734L16.7031 14.625H18.3359L14.125 26H12.9609L13.3516 24.2734ZM10.2188 14.625L13.5391 24.2734L13.9531 26H12.7891L8.58594 14.625H10.2188ZM21.4844 14.625V26H19.9766V14.625H21.4844ZM28.4219 21.5391H25.3828V20.3125H28.4219C29.0104 20.3125 29.487 20.2188 29.8516 20.0312C30.2161 19.8438 30.4818 19.5833 30.6484 19.25C30.8203 18.9167 30.9062 18.5365 30.9062 18.1094C30.9062 17.7188 30.8203 17.3516 30.6484 17.0078C30.4818 16.6641 30.2161 16.388 29.8516 16.1797C29.487 15.9661 29.0104 15.8594 28.4219 15.8594H25.7344V26H24.2266V14.625H28.4219C29.2812 14.625 30.0078 14.7734 30.6016 15.0703C31.1953 15.3672 31.6458 15.7786 31.9531 16.3047C32.2604 16.8255 32.4141 17.4219 32.4141 18.0938C32.4141 18.8229 32.2604 19.4453 31.9531 19.9609C31.6458 20.4766 31.1953 20.8698 30.6016 21.1406C30.0078 21.4062 29.2812 21.5391 28.4219 21.5391Z" fill="white"/>
</svg>
