<svg width="18" height="20" viewBox="0 0 18 20" fill="none" xmlns="http://www.w3.org/2000/svg">
<g filter="url(#filter0_d_11836_9898)">
<path d="M7.49146 18.062C7.34146 18.062 7.22146 18.032 7.13146 17.9945C6.83146 17.882 6.32146 17.5145 6.32146 16.352V11.5145H4.56646C3.56146 11.5145 3.20146 11.042 3.07396 10.7645C2.94646 10.4795 2.83396 9.90199 3.49396 9.14449L9.17146 2.69449C9.93646 1.82449 10.559 1.88449 10.859 1.99699C11.159 2.10949 11.669 2.47699 11.669 3.63949V8.47699H13.424C14.429 8.47699 14.789 8.94949 14.9165 9.22699C15.044 9.51199 15.1565 10.0895 14.4965 10.847L8.81896 17.297C8.28646 17.9045 7.82146 18.062 7.49146 18.062ZM10.4465 3.05449C10.424 3.08449 10.2665 3.15949 10.019 3.44449L4.34146 9.89449C4.13146 10.1345 4.10146 10.2845 4.10146 10.3145C4.11646 10.322 4.25146 10.397 4.56646 10.397H6.88396C7.19146 10.397 7.44646 10.652 7.44646 10.9595V16.3595C7.44646 16.7345 7.51396 16.8995 7.54396 16.9445C7.56646 16.9145 7.72396 16.8395 7.97146 16.5545L13.649 10.1045C13.859 9.86449 13.889 9.71449 13.889 9.68449C13.874 9.67699 13.739 9.60199 13.424 9.60199H11.1065C10.799 9.60199 10.544 9.34699 10.544 9.03949V3.63949C10.5515 3.26449 10.4765 3.10699 10.4465 3.05449Z" fill="#FA541C"/>
</g>
<defs>
<filter id="filter0_d_11836_9898" x="-1" y="0" width="20" height="20" filterUnits="userSpaceOnUse" color-interpolation-filters="sRGB">
<feFlood flood-opacity="0" result="BackgroundImageFix"/>
<feColorMatrix in="SourceAlpha" type="matrix" values="0 0 0 0 0 0 0 0 0 0 0 0 0 0 0 0 0 0 127 0" result="hardAlpha"/>
<feOffset/>
<feGaussianBlur stdDeviation="0.5"/>
<feComposite in2="hardAlpha" operator="out"/>
<feColorMatrix type="matrix" values="0 0 0 0 0.980392 0 0 0 0 0.329412 0 0 0 0 0.109804 0 0 0 1 0"/>
<feBlend mode="normal" in2="BackgroundImageFix" result="effect1_dropShadow_11836_9898"/>
<feBlend mode="normal" in="SourceGraphic" in2="effect1_dropShadow_11836_9898" result="shape"/>
</filter>
</defs>
</svg>
