<svg width="28" height="28" viewBox="0 0 28 28" fill="none" xmlns="http://www.w3.org/2000/svg">
<g filter="url(#filter0_d_11836_9944)">
<circle cx="14" cy="10" r="8" fill="#032340"/>
<path d="M13.8828 12.652C12.7428 12.652 11.7828 11.692 11.7828 10.552C11.7828 9.4 12.7428 8.452 13.8828 8.452C15.0468 8.452 16.0068 9.388 16.0068 10.552C16.0068 11.692 15.0468 12.652 13.8828 12.652ZM13.1268 10.552C13.1268 10.996 13.4748 11.344 13.8828 11.344C14.3148 11.344 14.6508 10.996 14.6508 10.552C14.6508 10.108 14.3148 9.772 13.8828 9.772C13.4748 9.772 13.1268 10.12 13.1268 10.552Z" fill="white"/>
</g>
<defs>
<filter id="filter0_d_11836_9944" x="0" y="0" width="28" height="30" filterUnits="userSpaceOnUse" color-interpolation-filters="sRGB">
<feFlood flood-opacity="0" result="BackgroundImageFix"/>
<feColorMatrix in="SourceAlpha" type="matrix" values="0 0 0 0 0 0 0 0 0 0 0 0 0 0 0 0 0 0 127 0" result="hardAlpha"/>
<feOffset dy="4"/>
<feGaussianBlur stdDeviation="3"/>
<feComposite in2="hardAlpha" operator="out"/>
<feColorMatrix type="matrix" values="0 0 0 0 0 0 0 0 0 0 0 0 0 0 0 0 0 0 0.16 0"/>
<feBlend mode="normal" in2="BackgroundImageFix" result="effect1_dropShadow_11836_9944"/>
<feBlend mode="normal" in="SourceGraphic" in2="effect1_dropShadow_11836_9944" result="shape"/>
</filter>
</defs>
</svg>
